<?xml version="1.0" encoding="iso-8859-1"?>
<!-- Generator: Adobe Illustrator 16.0.0, SVG Export Plug-In . SVG Version: 6.00 Build 0)  -->
<!DOCTYPE svg PUBLIC "-//W3C//DTD SVG 1.1//EN" "http://www.w3.org/Graphics/SVG/1.1/DTD/svg11.dtd">
<svg version="1.1" id="Capa_1" xmlns="http://www.w3.org/2000/svg" xmlns:xlink="http://www.w3.org/1999/xlink" x="0px" y="0px"
	 width="31.211px" height="31.211px" viewBox="0 0 31.211 31.211" style="enable-background:new 0 0 31.211 31.211;"
	 xml:space="preserve">
<g>
	<path d="M27.16,14.602c0.018-0.229,0.035-0.455,0.035-0.687c0-4.929-3.996-8.924-8.924-8.924c-3.599,0-6.694,2.137-8.104,5.206
		c-0.743-0.526-1.65-0.84-2.632-0.84c-2.518,0-4.558,2.041-4.558,4.559c0,0.377,0.051,0.742,0.137,1.093
		C1.259,16.022,0,17.988,0,20.251c0,3.297,2.672,5.969,5.968,5.969s16.853,0,19.275,0c3.296,0,5.968-2.672,5.968-5.969
		C31.213,17.625,29.516,15.401,27.16,14.602z M26.812,19.69c-0.204,2.158-1.705,4.468-5.303,4.468c-2.721,0-5.309-2.89-6.438-4.493
		c-0.003-0.005-2.109-3.257-4.44-3.173c-2.28,0.082-2.881,1.281-2.984,2.356c-0.102,1.074,0.512,2.18,1.493,2.687
		c1.232,0.632,2.767,0.244,4.322-1.104l1.525,1.765c-1.502,1.3-3.104,1.968-4.623,1.969c-0.796,0-1.569-0.184-2.293-0.557
		c-1.834-0.946-2.938-2.946-2.745-4.978c0.204-2.16,1.706-4.47,5.304-4.47c3.211,0,5.467,2.922,6.202,3.942
		c1.217,1.693,3.34,3.725,4.676,3.725c2.282,0,2.881-1.283,2.984-2.357c0.102-1.073-0.512-2.18-1.493-2.686
		c-1.231-0.632-2.766-0.243-4.321,1.104l-1.525-1.764c2.291-1.981,4.811-2.496,6.916-1.411
		C25.903,15.658,27.006,17.658,26.812,19.69z"/>
</g>
<g>
</g>
<g>
</g>
<g>
</g>
<g>
</g>
<g>
</g>
<g>
</g>
<g>
</g>
<g>
</g>
<g>
</g>
<g>
</g>
<g>
</g>
<g>
</g>
<g>
</g>
<g>
</g>
<g>
</g>
</svg>
